HIERARCHY
ROOT hip
{
  OFFSET 0 90.174 2.4664
  CHANNELS 6 Xposition Yposition Zposition Zrotation Xrotation Yrotation
  JOINT abdomen
  {
    OFFSET 0 -1.186 -1.5018
    CHANNELS 6 Xposition Yposition Zposition Zrotation Xrotation Yrotation
    JOINT abdomen2
    {
      OFFSET 0 9.964 0.2134
      CHANNELS 6 Xposition Yposition Zposition Zrotation Xrotation Yrotation
      JOINT chest
      {
        OFFSET 0 13.134 -3.2573
        CHANNELS 6 Xposition Yposition Zposition Zrotation Xrotation Yrotation
        JOINT neck
        {
          OFFSET 0 20.686 -1.6905
          CHANNELS 6 Xposition Yposition Zposition Zrotation Xrotation Yrotation
          JOINT head
          {
            OFFSET 0 7.238 -0.1237
            CHANNELS 6 Xposition Yposition Zposition Zrotation Xrotation Yrotation
            End Site
            {
              OFFSET 0 0 0
            }
          }
        }
        JOINT lCollar
        {
          OFFSET 1.7069 20.075 5.0056
          CHANNELS 6 Xposition Yposition Zposition Zrotation Xrotation Yrotation
          JOINT lShldr
          {
            OFFSET 13.6458 -0.047 -4.849
            CHANNELS 6 Xposition Yposition Zposition Zrotation Xrotation Yrotation
            JOINT lForeArm
            {
              OFFSET 28.3255 -0.9759 2.2888
              CHANNELS 6 Xposition Yposition Zposition Zrotation Xrotation Yrotation
              JOINT lHand
              {
                OFFSET 22.1583 -0.53 10.8316
                CHANNELS 6 Xposition Yposition Zposition Zrotation Xrotation Yrotation
                JOINT lThumb1
                {
                  OFFSET 0.786 0.112 2.5817
                  CHANNELS 6 Xposition Yposition Zposition Zrotation Xrotation Yrotation
                  JOINT lThumb2
                  {
                    OFFSET 0.3601 -0.878 4.2331
                    CHANNELS 6 Xposition Yposition Zposition Zrotation Xrotation Yrotation
                    JOINT lThumb2_End
                    {
                      OFFSET 1.8127 -1.216 2.2227
                      CHANNELS 6 Xposition Yposition Zposition Zrotation Xrotation Yrotation
                      End Site
                      {
                        OFFSET 0.0181 -0.0122 0.0222
                      }
                    }
                  }
                }
                JOINT lCarpal1
                {
                  OFFSET 0.9571 1.114 1.7695
                  CHANNELS 6 Xposition Yposition Zposition Zrotation Xrotation Yrotation
                  JOINT lIndex1
                  {
                    OFFSET 4.1246 0.487 4.1451
                    CHANNELS 6 Xposition Yposition Zposition Zrotation Xrotation Yrotation
                    JOINT lIndex2
                    {
                      OFFSET 3.4052 -1.454 2.7682
                      CHANNELS 6 Xposition Yposition Zposition Zrotation Xrotation Yrotation
                      JOINT lIndex2_End
                      {
                        OFFSET 1.4531 -1.795 1.2713
                        CHANNELS 6 Xposition Yposition Zposition Zrotation Xrotation Yrotation
                        End Site
                        {
                          OFFSET 0.0145 -0.0179 0.0127
                        }
                      }
                    }
                  }
                  JOINT lMid1
                  {
                    OFFSET 5.6954 0.21 2.1184
                    CHANNELS 6 Xposition Yposition Zposition Zrotation Xrotation Yrotation
                    JOINT lMid2
                    {
                      OFFSET 3.9766 -1.54 2.3863
                      CHANNELS 6 Xposition Yposition Zposition Zrotation Xrotation Yrotation
                      JOINT lMid2_End
                      {
                        OFFSET 1.4042 -1.926 1.125
                        CHANNELS 6 Xposition Yposition Zposition Zrotation Xrotation Yrotation
                        End Site
                        {
                          OFFSET 0.014 -0.0193 0.0113
                        }
                      }
                    }
                  }
                }
                JOINT lCarpal2
                {
                  OFFSET 2.0956 0.66 -0.3894
                  CHANNELS 6 Xposition Yposition Zposition Zrotation Xrotation Yrotation
                  JOINT lRing1
                  {
                    OFFSET 5.0395 -0.09 2.4971
                    CHANNELS 6 Xposition Yposition Zposition Zrotation Xrotation Yrotation
                    JOINT lRing2
                    {
                      OFFSET 3.7921 -1.552 1.4806
                      CHANNELS 6 Xposition Yposition Zposition Zrotation Xrotation Yrotation
                      JOINT lRing2_End
                      {
                        OFFSET 1.4655 -1.808 0.9609
                        CHANNELS 6 Xposition Yposition Zposition Zrotation Xrotation Yrotation
                        End Site
                        {
                          OFFSET 0.0147 -0.0181 0.0096
                        }
                      }
                    }
                  }
                  JOINT lPinky1
                  {
                    OFFSET 4.9141 -1.269 0.3591
                    CHANNELS 6 Xposition Yposition Zposition Zrotation Xrotation Yrotation
                    JOINT lPinky2
                    {
                      OFFSET 3.1477 -1.685 0.8462
                      CHANNELS 6 Xposition Yposition Zposition Zrotation Xrotation Yrotation
                      JOINT lPinky2_End
                      {
                        OFFSET 0.8055 -1.585 0.7955
                        CHANNELS 6 Xposition Yposition Zposition Zrotation Xrotation Yrotation
                        End Site
                        {
                          OFFSET 0.0081 -0.0158 0.008
                        }
                      }
                    }
                  }
                }
              }
            }
          }
        }
        JOINT rCollar
        {
          OFFSET -1.7069 20.075 5.0056
          CHANNELS 6 Xposition Yposition Zposition Zrotation Xrotation Yrotation
          JOINT rShldr
          {
            OFFSET -13.6458 -0.047 -4.849
            CHANNELS 6 Xposition Yposition Zposition Zrotation Xrotation Yrotation
            JOINT rForeArm
            {
              OFFSET -28.3255 -0.9759 2.2888
              CHANNELS 6 Xposition Yposition Zposition Zrotation Xrotation Yrotation
              JOINT rHand
              {
                OFFSET -22.1583 -0.53 10.8316
                CHANNELS 6 Xposition Yposition Zposition Zrotation Xrotation Yrotation
                JOINT rThumb1
                {
                  OFFSET -0.786 0.112 2.5817
                  CHANNELS 6 Xposition Yposition Zposition Zrotation Xrotation Yrotation
                  JOINT rThumb2
                  {
                    OFFSET -0.3601 -0.878 4.2331
                    CHANNELS 6 Xposition Yposition Zposition Zrotation Xrotation Yrotation
                    JOINT rThumb2_End
                    {
                      OFFSET -1.8127 -1.216 2.2227
                      CHANNELS 6 Xposition Yposition Zposition Zrotation Xrotation Yrotation
                      End Site
                      {
                        OFFSET -0.0181 -0.0122 0.0222
                      }
                    }
                  }
                }
                JOINT rCarpal1
                {
                  OFFSET -0.9571 1.114 1.7695
                  CHANNELS 6 Xposition Yposition Zposition Zrotation Xrotation Yrotation
                  JOINT rIndex1
                  {
                    OFFSET -4.1246 0.487 4.1451
                    CHANNELS 6 Xposition Yposition Zposition Zrotation Xrotation Yrotation
                    JOINT rIndex2
                    {
                      OFFSET -3.4052 -1.454 2.7682
                      CHANNELS 6 Xposition Yposition Zposition Zrotation Xrotation Yrotation
                      JOINT rIndex2_End
                      {
                        OFFSET -1.4531 -1.795 1.2713
                        CHANNELS 6 Xposition Yposition Zposition Zrotation Xrotation Yrotation
                        End Site
                        {
                          OFFSET -0.0145 -0.018 0.0127
                        }
                      }
                    }
                  }
                  JOINT rMid1
                  {
                    OFFSET -5.6954 0.21 2.1184
                    CHANNELS 6 Xposition Yposition Zposition Zrotation Xrotation Yrotation
                    JOINT rMid2
                    {
                      OFFSET -3.9766 -1.54 2.3863
                      CHANNELS 6 Xposition Yposition Zposition Zrotation Xrotation Yrotation
                      JOINT rMid2_End
                      {
                        OFFSET -1.4042 -1.926 1.125
                        CHANNELS 6 Xposition Yposition Zposition Zrotation Xrotation Yrotation
                        End Site
                        {
                          OFFSET -0.014 -0.0193 0.0113
                        }
                      }
                    }
                  }
                }
                JOINT rCarpal2
                {
                  OFFSET -2.0956 0.66 -0.3894
                  CHANNELS 6 Xposition Yposition Zposition Zrotation Xrotation Yrotation
                  JOINT rRing1
                  {
                    OFFSET -5.0395 -0.09 2.4971
                    CHANNELS 6 Xposition Yposition Zposition Zrotation Xrotation Yrotation
                    JOINT rRing2
                    {
                      OFFSET -3.7921 -1.552 1.4806
                      CHANNELS 6 Xposition Yposition Zposition Zrotation Xrotation Yrotation
                      JOINT rRing2_End
                      {
                        OFFSET -1.4655 -1.808 0.9609
                        CHANNELS 6 Xposition Yposition Zposition Zrotation Xrotation Yrotation
                        End Site
                        {
                          OFFSET -0.0147 -0.0181 0.0096
                        }
                      }
                    }
                  }
                  JOINT rPinky1
                  {
                    OFFSET -4.9141 -1.269 0.3592
                    CHANNELS 6 Xposition Yposition Zposition Zrotation Xrotation Yrotation
                    JOINT rPinky2
                    {
                      OFFSET -3.1477 -1.685 0.8462
                      CHANNELS 6 Xposition Yposition Zposition Zrotation Xrotation Yrotation
                      JOINT rPinky2_End
                      {
                        OFFSET -0.8055 -1.585 0.7955
                        CHANNELS 6 Xposition Yposition Zposition Zrotation Xrotation Yrotation
                        End Site
                        {
                          OFFSET -0.0081 -0.0158 0.008
                        }
                      }
                    }
                  }
                }
              }
            }
          }
        }
      }
    }
  }
  JOINT lThigh
  {
    OFFSET 8.367 -8.2066 0.5982
    CHANNELS 6 Xposition Yposition Zposition Zrotation Xrotation Yrotation
    JOINT lShin
    {
      OFFSET 2.1923 -43.463 -0.4932
      CHANNELS 6 Xposition Yposition Zposition Zrotation Xrotation Yrotation
      JOINT lFoot
      {
        OFFSET 0.7333 -45.8593 -2.6451
        CHANNELS 6 Xposition Yposition Zposition Zrotation Xrotation Yrotation
        End Site
        {
          OFFSET 2.6618 -4.2699 12.3931
        }
      }
    }
  }
  JOINT rThigh
  {
    OFFSET -8.367 -8.2066 0.5982
    CHANNELS 6 Xposition Yposition Zposition Zrotation Xrotation Yrotation
    JOINT rShin
    {
      OFFSET -2.1923 -43.463 -0.4931
      CHANNELS 6 Xposition Yposition Zposition Zrotation Xrotation Yrotation
      JOINT rFoot
      {
        OFFSET -0.7333 -45.8593 -2.6451
        CHANNELS 6 Xposition Yposition Zposition Zrotation Xrotation Yrotation
        End Site
        {
          OFFSET -2.6618 -4.2699 12.3931
        }
      }
    }
  }
}
MOTION
Frames:	4
Frame Time:	0.0333333
0 90.174 2.4664 0 0 -0 0 -1.186 -1.5018 0 0 -0 0 9.964 0.2134 0 0 -0 0 13.134 -3.2573 0 0 -0 0 20.686 -1.6905 0 0 -0 0 7.238 -0.1237 0 0 -0 1.7069 20.075 5.0056 0 0 -0 13.6458 -0.047 -4.849 1.66051 0.0835086 5.75766 28.3255 -0.9759 2.2888 -0.0175111 0.895433 15.7816 22.1583 -0.53 10.8316 7.95139e-016 -1.98785e-016 -0 0.786 0.112 2.5817 5.46658e-016 -3.97569e-016 -0 0.3601 -0.878 4.2331 5.96354e-016 0 -0 1.8127 -1.216 2.2227 3.97569e-016 1.98785e-016 9.54166e-015 0.9571 1.114 1.7695 1.49089e-016 -3.97569e-016 -0 4.1246 0.487 4.1451 6.4605e-016 0 3.18055e-015 3.4052 -1.454 2.7682 5.96354e-016 0 3.18055e-015 1.4531 -1.795 1.2713 8.94531e-016 -1.98785e-016 6.36111e-015 5.6954 0.21 2.1184 6.4605e-016 0 3.18055e-015 3.9766 -1.54 2.3863 5.96354e-016 0 3.18055e-015 1.4042 -1.926 1.125 8.94531e-016 -1.98785e-016 6.36111e-015 2.0956 0.66 -0.3894 1.49089e-016 -3.97569e-016 -0 5.0395 -0.09 2.4971 6.4605e-016 0 3.18055e-015 3.7921 -1.552 1.4806 5.96354e-016 0 3.18055e-015 1.4655 -1.808 0.9609 8.94531e-016 -1.98785e-016 6.36111e-015 4.9141 -1.269 0.3591 6.4605e-016 0 3.18055e-015 3.1477 -1.685 0.8462 5.96354e-016 0 3.18055e-015 0.8055 -1.585 0.7955 8.94531e-016 -1.98785e-016 6.36111e-015 -1.7069 20.075 5.0056 0 0 -0 -13.6458 -0.047 -4.849 -1.4496 0.0636048 -5.0245 -28.3255 -0.9759 2.2888 -1.74811 1.20616 -16.8394 -22.1583 -0.53 10.8316 -1.19271e-015 1.98785e-016 -3.18055e-015 -0.786 0.112 2.5817 -3.97569e-016 1.98785e-016 -3.18055e-015 -0.3601 -0.878 4.2331 -2.98177e-016 1.98785e-016 -3.18055e-015 -1.8127 -1.216 2.2227 -2.98177e-016 3.97569e-016 -0 -0.9571 1.114 1.7695 4.96962e-016 0 -6.36111e-015 -4.1246 0.487 4.1451 -9.93923e-017 3.97569e-016 -0 -3.4052 -1.454 2.7682 -8.94531e-016 5.96354e-016 -0 -1.4531 -1.795 1.2713 -3.97569e-016 3.97569e-016 -0 -5.6954 0.21 2.1184 -9.93923e-017 3.97569e-016 -0 -3.9766 -1.54 2.3863 -8.94531e-016 5.96354e-016 -0 -1.4042 -1.926 1.125 -3.97569e-016 3.97569e-016 -0 -2.0956 0.66 -0.3894 4.96962e-016 0 -6.36111e-015 -5.0395 -0.09 2.4971 -9.93923e-017 3.97569e-016 -0 -3.7921 -1.552 1.4806 -8.94531e-016 5.96354e-016 -0 -1.4655 -1.808 0.9609 -3.97569e-016 3.97569e-016 -0 -4.9141 -1.269 0.3592 -9.93923e-017 3.97569e-016 -0 -3.1477 -1.685 0.8462 -8.94531e-016 5.96354e-016 -0 -0.8055 -1.585 0.7955 -3.97569e-016 3.97569e-016 -0 8.367 -8.2066 0.5982 -4.66115 -1.03232 0.120763 2.1923 -43.463 -0.4932 0.00990601 1.55097 0.177175 0.7333 -45.8593 -2.6451 4.65196 -0.54114 -0.255042 -8.367 -8.2066 0.5982 4.66115 -1.03222 -0.120763 -2.1923 -43.463 -0.4931 -0.00990459 1.5509 -0.177176 -0.7333 -45.8593 -2.6451 -4.65196 -0.541171 0.255041 
-31.8125 37.0337 14.2347 36.2124 29.1341 123.62 0 -1.186 -1.5018 -0.472447 1.51483 0.0147266 7.10543e-015 9.964 0.2134 -0.945765 3.02948 0.0419699 1.77636e-015 13.134 -3.2573 -0.945755 3.02948 0.0419973 3.55271e-015 20.686 -1.6905 2.46439e-005 11.9268 -5.43899e-005 -7.10543e-015 7.238 -0.1237 1.17451e-006 8.2127 -7.26148e-006 1.7069 20.075 5.0056 -9.35477 17.4338 -14.44 13.6458 -0.047 -4.849 -30.8432 -5.17031 37.407 28.3255 -0.9759 2.2888 1.38907 -11.649 -42.8572 22.1583 -0.53 10.8316 -11.1793 4.40628 -3.60344 0.786 0.112 2.5817 9.54166e-015 2.38542e-015 -3.18055e-015 0.3601 -0.878 4.2331 -2.88035e-006 -1.4398e-006 5.78886e-007 1.8127 -1.216 2.2227 1.27222e-014 4.77083e-015 3.18055e-015 0.9571 1.114 1.7695 6.36111e-015 3.97569e-015 -1.59028e-015 4.1246 0.487 4.1451 1.27222e-014 -2.38542e-015 9.54166e-015 3.4052 -1.454 2.7682 -2.88035e-006 -1.4398e-006 5.78886e-007 1.4531 -1.795 1.2713 4.41391e-032 -7.95139e-016 3.18055e-015 5.6954 0.21 2.1184 1.27222e-014 -2.38542e-015 9.54166e-015 3.9766 -1.54 2.3863 -2.88035e-006 -1.4398e-006 5.78886e-007 1.4042 -1.926 1.125 4.41391e-032 -7.95139e-016 3.18055e-015 2.0956 0.66 -0.3894 6.36111e-015 3.97569e-015 -1.59028e-015 5.0395 -0.09 2.4971 1.27222e-014 -2.38542e-015 9.54166e-015 3.7921 -1.552 1.4806 -2.88035e-006 -1.4398e-006 5.78886e-007 1.4655 -1.808 0.9609 4.41391e-032 -7.95139e-016 3.18055e-015 4.9141 -1.269 0.3591 1.27222e-014 -2.38542e-015 9.54166e-015 3.1477 -1.685 0.8462 -2.88035e-006 -1.4398e-006 5.78886e-007 0.8055 -1.585 0.7955 4.41391e-032 -7.95139e-016 3.18055e-015 -1.7069 20.075 5.0056 9.3589 17.4332 14.4354 -13.6458 -0.047 -4.849 31.0071 -5.29573 -36.6585 -28.3255 -0.9759 2.2888 -2.86139 -12.8025 41.5177 -22.1583 -0.53 10.8316 11.1622 4.37075 3.68671 -0.786 0.112 2.5817 -2.00345e-006 2.92786e-006 -5.9715e-008 -0.3601 -0.878 4.2331 -2.55561e-006 2.62193e-006 -1.63155e-006 -1.8127 -1.216 2.2227 -7.95139e-016 0 2.38542e-015 -0.9571 1.114 1.7695 -7.95139e-016 6.36111e-015 3.18055e-015 -4.1246 0.487 4.1451 -2.00345e-006 2.92786e-006 -5.9715e-008 -3.4052 -1.454 2.7682 -2.55561e-006 2.62193e-006 -1.63155e-006 -1.4531 -1.795 1.2713 -7.95139e-016 0 -2.38542e-015 -5.6954 0.21 2.1184 -2.00345e-006 2.92786e-006 -5.9715e-008 -3.9766 -1.54 2.3863 -2.55561e-006 2.62193e-006 -1.63155e-006 -1.4042 -1.926 1.125 -7.95139e-016 0 -2.38542e-015 -2.0956 0.66 -0.3894 -7.95139e-016 6.36111e-015 3.18055e-015 -5.0395 -0.09 2.4971 -2.00345e-006 2.92786e-006 -5.9715e-008 -3.7921 -1.552 1.4806 -2.55561e-006 2.62193e-006 -1.63155e-006 -1.4655 -1.808 0.9609 -7.95139e-016 0 -2.38542e-015 -4.9141 -1.269 0.3592 -2.00345e-006 2.92786e-006 -5.9715e-008 -3.1477 -1.685 0.8462 -2.55561e-006 2.62193e-006 -1.63155e-006 -0.8055 -1.585 0.7955 -7.95139e-016 0 -2.38542e-015 8.367 -8.2066 0.5982 29.1069 -23.1308 62.5523 2.1923 -43.463 -0.4932 49.5277 61.0828 -92.9843 0.7333 -45.8593 -2.6451 -3.54489 18.33 31.9949 -8.367 -8.2066 0.5982 -29.9085 -21.9824 -61.306 -2.1923 -43.463 -0.4931 -46.1884 60.0253 87.9494 -0.7333 -45.8593 -2.6451 3.508 19.1249 -29.1908 
-39.4516 12.4103 22.301 -26.865 62.3242 -150.23 0 -1.186 -1.5018 -0.69558 2.25403 -0.0108161 -7.10543e-015 9.964 0.2134 -1.39235 4.50796 0.00578504 0 13.134 -3.2573 -1.39235 4.50797 0.00578864 7.10543e-015 20.686 -1.6905 1.6415e-005 16.9115 -4.56327e-006 0 7.238 -0.1237 2.43777e-007 11.5873 -2.02601e-006 1.7069 20.075 5.0056 -10.3392 24.2847 -22.236 13.6458 -0.047 -4.849 -43.6628 -6.05411 51.803 28.3255 -0.9759 2.2888 -1.39478 -4.72864 -68.0624 22.1583 -0.53 10.8316 -16.1346 6.16487 -5.04925 0.786 0.112 2.5817 -9.14409e-015 -3.97569e-016 -3.18055e-015 0.3601 -0.878 4.2331 1.59028e-015 -1.98785e-015 -0 1.8127 -1.216 2.2227 4.77083e-015 -9.93923e-016 6.36111e-015 0.9571 1.114 1.7695 -5.96354e-015 -9.93923e-016 -0 4.1246 0.487 4.1451 5.96354e-015 -9.93923e-016 1.59028e-014 3.4052 -1.454 2.7682 -1.59028e-015 -2.18663e-015 -0 1.4531 -1.795 1.2713 -1.98785e-015 -1.78906e-015 -0 5.6954 0.21 2.1184 5.96354e-015 -9.93923e-016 1.59028e-014 3.9766 -1.54 2.3863 -1.59028e-015 -2.18663e-015 -0 1.4042 -1.926 1.125 -1.98785e-015 -1.78906e-015 -0 2.0956 0.66 -0.3894 -5.96354e-015 -9.93923e-016 -0 5.0395 -0.09 2.4971 5.96354e-015 -9.93923e-016 1.59028e-014 3.7921 -1.552 1.4806 -1.59028e-015 -2.18663e-015 -0 1.4655 -1.808 0.9609 -1.98785e-015 -1.78906e-015 -0 4.9141 -1.269 0.3591 5.96354e-015 -9.93923e-016 1.59028e-014 3.1477 -1.685 0.8462 -1.59028e-015 -2.18663e-015 -0 0.8055 -1.585 0.7955 -1.98785e-015 -1.78906e-015 -0 -1.7069 20.075 5.0056 10.3121 24.2821 22.2412 -13.6458 -0.047 -4.849 43.8012 -6.22553 -51.0677 -28.3255 -0.9759 2.2888 0.64026 -6.26989 66.9228 -22.1583 -0.53 10.8316 16.106 6.11115 5.15965 -0.786 0.112 2.5817 -9.51032e-007 -1.20178e-006 6.934e-007 -0.3601 -0.878 4.2331 -4.80711e-006 3.80413e-006 1.1743e-006 -1.8127 -1.216 2.2227 5.01489e-007 -4.30562e-006 7.99651e-007 -0.9571 1.114 1.7695 -1.59028e-015 3.18055e-015 -0 -4.1246 0.487 4.1451 -9.51032e-007 -1.20178e-006 6.934e-007 -3.4052 -1.454 2.7682 -4.80711e-006 3.80413e-006 1.1743e-006 -1.4531 -1.795 1.2713 5.01489e-007 -4.30562e-006 7.99651e-007 -5.6954 0.21 2.1184 -9.51032e-007 -1.20178e-006 6.934e-007 -3.9766 -1.54 2.3863 -4.80711e-006 3.80413e-006 1.1743e-006 -1.4042 -1.926 1.125 5.01489e-007 -4.30562e-006 7.99651e-007 -2.0956 0.66 -0.3894 -1.59028e-015 3.18055e-015 -0 -5.0395 -0.09 2.4971 -9.51032e-007 -1.20178e-006 6.934e-007 -3.7921 -1.552 1.4806 -4.80711e-006 3.80413e-006 1.1743e-006 -1.4655 -1.808 0.9609 5.01489e-007 -4.30562e-006 7.99651e-007 -4.9141 -1.269 0.3592 -9.51032e-007 -1.20178e-006 6.934e-007 -3.1477 -1.685 0.8462 -4.80711e-006 3.80413e-006 1.1743e-006 -0.8055 -1.585 0.7955 5.01489e-007 -4.30562e-006 7.99651e-007 8.367 -8.2066 0.5982 49.5545 -15.4874 86.1772 2.1923 -43.463 -0.4932 81.5835 32.8558 -128.113 0.7333 -45.8593 -2.6451 -12.0226 20.1547 49.1709 -8.367 -8.2066 0.5982 -50.5814 -15.3382 -85.189 -2.1923 -43.463 -0.4931 -80.1687 34.1593 124.186 -0.7333 -45.8593 -2.6451 11.9731 21.7592 -45.1547 
-38.1542 17.8374 21.1479 5.6401e-015 60.9968 180 0 -1.186 -1.5018 -0.641952 2.21464 -0.00612887 7.10543e-015 9.964 0.2134 -1.28511 4.42918 0.0126094 0 13.134 -3.2573 -1.28511 4.42919 0.0126097 0 20.686 -1.6905 5.33261e-006 14.9537 -1.52046e-007 0 7.238 -0.1237 2.73243e-007 10.1237 -1.28523e-007 1.7069 20.075 5.0056 -9.9799 22.639 -20.9227 13.6458 -0.047 -4.849 -41.0251 -6.07092 48.6918 28.3255 -0.9759 2.2888 -1.06591 -6.99652 -62.7675 22.1583 -0.53 10.8316 -14.8007 5.35355 -4.97346 0.786 0.112 2.5817 -2.30263e-006 -1.44906e-006 -1.96686e-006 0.3601 -0.878 4.2331 -1.98785e-015 -7.55382e-015 -3.18055e-015 1.8127 -1.216 2.2227 -1.19271e-015 -5.36719e-015 -9.54166e-015 0.9571 1.114 1.7695 -2.38542e-015 4.17448e-015 -3.18055e-015 4.1246 0.487 4.1451 -2.30263e-006 -1.44906e-006 -1.96686e-006 3.4052 -1.454 2.7682 2.38542e-015 -9.93923e-016 -9.54166e-015 1.4531 -1.795 1.2713 -1.19271e-015 -5.1684e-015 -3.18055e-015 5.6954 0.21 2.1184 -2.30263e-006 -1.44906e-006 -1.96686e-006 3.9766 -1.54 2.3863 2.38542e-015 -9.93923e-016 -9.54166e-015 1.4042 -1.926 1.125 -1.19271e-015 -5.1684e-015 -3.18055e-015 2.0956 0.66 -0.3894 -2.38542e-015 4.17448e-015 -3.18055e-015 5.0395 -0.09 2.4971 -2.30263e-006 -1.44906e-006 -1.96686e-006 3.7921 -1.552 1.4806 2.38542e-015 -9.93923e-016 -9.54166e-015 1.4655 -1.808 0.9609 -1.19271e-015 -5.1684e-015 -3.18055e-015 4.9141 -1.269 0.3591 -2.30263e-006 -1.44906e-006 -1.96686e-006 3.1477 -1.685 0.8462 2.38542e-015 -9.93923e-016 -9.54166e-015 0.8055 -1.585 0.7955 -1.19271e-015 -5.1684e-015 -3.18055e-015 -1.7069 20.075 5.0056 9.88475 22.632 20.9523 -13.6458 -0.047 -4.849 41.2012 -6.25399 -47.979 -28.3255 -0.9759 2.2888 0.139615 -8.48227 61.5873 -22.1583 -0.53 10.8316 14.7661 5.28607 5.0657 -0.786 0.112 2.5817 -3.97569e-015 -5.76476e-015 -3.18055e-015 -0.3601 -0.878 4.2331 -2.38542e-015 -2.5842e-015 -0 -1.8127 -1.216 2.2227 -7.95139e-016 -6.55989e-015 -0 -0.9571 1.114 1.7695 -3.97569e-015 -6.36111e-015 -3.18055e-015 -4.1246 0.487 4.1451 -2.38542e-015 -3.18055e-015 -0 -3.4052 -1.454 2.7682 -7.95139e-016 -1.0138e-014 -0 -1.4531 -1.795 1.2713 1.59028e-015 4.57205e-015 3.18055e-015 -5.6954 0.21 2.1184 -2.38542e-015 -3.18055e-015 -0 -3.9766 -1.54 2.3863 -7.95139e-016 -1.0138e-014 -0 -1.4042 -1.926 1.125 1.59028e-015 4.57205e-015 3.18055e-015 -2.0956 0.66 -0.3894 -3.97569e-015 -6.36111e-015 -3.18055e-015 -5.0395 -0.09 2.4971 -2.38542e-015 -3.18055e-015 -0 -3.7921 -1.552 1.4806 -7.95139e-016 -1.0138e-014 -0 -1.4655 -1.808 0.9609 1.59028e-015 4.57205e-015 3.18055e-015 -4.9141 -1.269 0.3592 -2.38542e-015 -3.18055e-015 -0 -3.1477 -1.685 0.8462 -7.95139e-016 -1.0138e-014 -0 -0.8055 -1.585 0.7955 1.59028e-015 4.57205e-015 3.18055e-015 8.367 -8.2066 0.5982 44.6214 -18.7586 79.9227 2.1923 -43.463 -0.4932 78.3236 40.6136 -123.347 0.7333 -45.8593 -2.6451 -10.434 19.884 44.5029 -8.367 -8.2066 0.5982 -45.5118 -18.3375 -78.8133 -2.1923 -43.463 -0.4931 -76.3691 41.4702 119.258 -0.7333 -45.8593 -2.6451 10.4326 21.2598 -40.986 
